<?xml version="1.0" encoding="utf-8"?>
<!-- Generator: Adobe Illustrator 25.0.1, SVG Export Plug-In . SVG Version: 6.00 Build 0)  -->
<svg version="1.1" id="Layer_1" xmlns="http://www.w3.org/2000/svg" xmlns:xlink="http://www.w3.org/1999/xlink" x="0px" y="0px"
	 viewBox="0 0 35.2 30.8" style="enable-background:new 0 0 35.2 30.8;" xml:space="preserve">
<style type="text/css">
	.st0{fill:#EA963F;}
	.st1{fill:#282626;}
	.st2{fill:#DA4D34;}
	.st3{fill:#FBFBFC;}
	.st4{fill:#111111;}
	.st5{fill:#3D3D3D;}
	.st6{fill:#222222;}
	.st7{fill:#0C0C0C;}
	.st8{fill:#FFFFFF;}
</style>
<g id="flmQqA_3_">
	<g>
		<path d="M18.2,21.7c1.4,0,2.9,0,4.3,0c0.2,0,0.2-0.1,0.2-0.3c0-0.9,0-1.7,0-2.6c0-0.1,0-0.2,0-0.4c2.4,1.4,4.8,2.8,7.3,4.2
			c-2.4,1.4-4.8,2.8-7.3,4.2c0-1,0-1.9,0-2.9c0-0.3-0.1-0.4-0.4-0.4c-5.4,0-10.8,0-16.2,0c-0.1,0-0.3,0-0.5,0
			c0.6-0.6,1.1-1.2,1.7-1.7c2.9-3,5.7-6.1,8.4-9.3c0.7-0.9,1.3-1.8,1.6-2.9C18,7.2,16,5.9,14.2,6.2c-0.9,0.1-1.6,0.5-2.1,1.2
			c-0.2,0.2-0.2,0.3,0.1,0.4c1.5,0.4,2.3,1.7,2.1,3.3c-0.2,1.3-1.3,2.4-2.7,2.5c-1.8,0.1-3.4-1.6-3-3.4C8.9,8,10,6.4,11.9,5.4
			c3.1-1.7,6.3-1.8,9.5-0.3c3.2,1.5,4.1,5.2,2.9,8.1c-0.6,1.5-1.6,2.9-2.6,4.2c-1,1.4-2.1,2.7-3.3,4C18.3,21.5,18.3,21.5,18.2,21.7z
			 M17.8,5.6C17.9,5.7,18,5.8,18,5.8c1,1.1,1.4,2.3,1.2,3.8c-0.2,1.3-0.8,2.4-1.6,3.4c-2.1,2.6-4.4,5.1-6.7,7.6
			c-0.3,0.4-0.7,0.7-1,1.1c0.1,0.1,0.1,0.1,0.2,0.1c1.8,0,3.5,0,5.3,0c0.2,0,0.3-0.1,0.4-0.2c0.7-0.8,1.4-1.6,2.1-2.5
			c1.5-1.8,3-3.7,4.2-5.8c0.6-1.1,0.9-2.3,0.6-3.6C22.4,7.1,20.1,5.7,17.8,5.6z M10.2,10.6c0,0.6,0.5,1.1,1.1,1.1
			c0.6,0,1.1-0.5,1.1-1.1c0-0.6-0.5-1.1-1.1-1.1C10.7,9.5,10.2,10,10.2,10.6z M24.5,21.3c0,0.9,0,1.8,0,2.7c0.8-0.5,1.5-0.9,2.3-1.3
			C26,22.1,25.3,21.7,24.5,21.3z"/>
		<path d="M0.4,14.5c0-1.2,0-2.4,0-3.6c0-0.1-0.1-0.3,0.2-0.3c1.1,0,2.2-0.1,3.3,0.1C6.1,11,7.2,12.9,7,14.9c-0.2,2-1.7,3.4-3.9,3.5
			c-0.8,0-1.6,0-2.4,0c-0.3,0-0.3-0.1-0.3-0.3C0.4,16.9,0.4,15.7,0.4,14.5z M1.9,14.4c0,0.6,0,1.3,0,1.9c0,0.7,0,0.7,0.7,0.7
			c1.8-0.1,2.7-0.8,2.7-2.5c0-1.3-0.6-2.3-1.7-2.6c-0.5-0.1-1-0.1-1.5-0.1c-0.2,0-0.3,0.1-0.3,0.3C1.9,12.9,1.9,13.7,1.9,14.4z"/>
		<path d="M28.2,14.4c0-1.2,0-2.4,0-3.6c0-0.3,0.1-0.3,0.3-0.3c1,0,2.1-0.1,3.1,0.1c2.1,0.4,3.3,2,3.2,4.1c-0.1,2.2-1.7,3.7-3.9,3.7
			c-0.8,0-1.6,0-2.4,0c-0.2,0-0.3-0.1-0.3-0.3C28.2,16.9,28.2,15.7,28.2,14.4z M29.8,14.5c0,0.6,0,1.3,0,1.9c0,0.7,0,0.7,0.7,0.7
			c1.7,0,2.6-0.7,2.7-2.2c0.1-1.3-0.4-2.5-1.7-2.8c-0.5-0.1-0.9-0.1-1.4-0.1c-0.3,0-0.3,0.1-0.3,0.3C29.8,12.9,29.8,13.7,29.8,14.5z
			"/>
	</g>
</g>
</svg>
