<?xml version="1.0" encoding="utf-8"?>
<!-- Generator: Adobe Illustrator 25.0.1, SVG Export Plug-In . SVG Version: 6.00 Build 0)  -->
<svg version="1.1" id="Layer_1" xmlns="http://www.w3.org/2000/svg" xmlns:xlink="http://www.w3.org/1999/xlink" x="0px" y="0px"
	 viewBox="0 0 94.8 30.8" style="enable-background:new 0 0 94.8 30.8;" xml:space="preserve">
<style type="text/css">
	.st0{fill:#EA963F;}
	.st1{fill:#282626;}
	.st2{fill:#DA4D34;}
	.st3{fill:#FBFBFC;}
	.st4{fill:#111111;}
	.st5{fill:#3D3D3D;}
	.st6{fill:#222222;}
	.st7{fill:#0C0C0C;}
	.st8{fill:#FFFFFF;}
</style>
<g id="CZwGmY.tif_1_">
	<g>
		<path d="M61,26.2c0-4.7,0-9.4,0-14.1c0-0.1,0-0.2,0.1-0.1c0.3,0,0.7,0,1,0c0.1,0,0.1,0,0.1,0.1c0,0.4,0,0.8,0,1.2c0,0,0,0.1,0,0.1
			c0,0,0,0,0,0c0.6-0.9,1.5-1.4,2.5-1.6c1.4-0.3,2.7,0,3.9,0.9c0.9,0.7,1.4,1.6,1.6,2.8c0.2,1.1,0.1,2.1-0.4,3.1
			c-0.6,1.3-1.7,2-3.1,2.3c-1,0.2-2.1,0.1-3-0.3c-0.6-0.3-1.1-0.7-1.4-1.2c0,0,0-0.1-0.1-0.1c0,2.3,0,4.6,0,6.9
			C61.8,26.2,61.4,26.2,61,26.2z M65.7,12.9c-0.2,0-0.3,0-0.5,0c-0.9,0.1-1.7,0.5-2.3,1.3c-0.6,0.8-0.8,1.6-0.7,2.6
			c0.1,1,0.5,1.8,1.3,2.3c0.8,0.6,1.7,0.8,2.6,0.7c1.1-0.1,1.9-0.7,2.4-1.6c0.5-0.9,0.5-1.8,0.4-2.7c-0.1-0.7-0.4-1.3-0.9-1.7
			C67.4,13.2,66.6,12.9,65.7,12.9z"/>
		<path d="M0.4,7.5c0.4,0,0.8,0,1.2,0c0.1,0,0.1,0,0.1,0.1c0,4.4,0,8.7,0,13.1c0,0.1,0,0.1-0.1,0.1c-0.4,0-0.8,0-1.2,0
			C0.4,16.4,0.4,11.9,0.4,7.5z"/>
		<path d="M20.3,13.5c0,0,0-0.1,0-0.1c0-0.4,0-0.8,0-1.2c0-0.1,0-0.1,0.1-0.1c0.3,0,0.7,0,1,0c0.1,0,0.1,0,0.1,0.1
			c0,2.9,0,5.8,0,8.6c0,0.8-0.1,1.6-0.5,2.3c-0.5,1-1.3,1.7-2.4,2c-0.5,0.2-1.1,0.2-1.7,0.2c-0.8,0-1.5-0.1-2.2-0.3
			c-0.8-0.3-1.5-0.8-2.1-1.4c0-0.1,0-0.1,0-0.1c0.3-0.3,0.5-0.6,0.8-0.9c0.1-0.1,0.1,0,0.1,0c0.3,0.4,0.8,0.8,1.3,1
			c0.5,0.3,1.1,0.4,1.6,0.5c0.6,0.1,1.2,0,1.7-0.2c1.1-0.3,1.7-1.1,2-2.2c0.1-0.4,0.1-0.7,0.1-1.1c0-0.5,0-0.9,0-1.4
			c0,0,0-0.1,0-0.1c0,0,0,0,0,0c-0.1,0.1-0.1,0.2-0.2,0.3c-0.6,0.7-1.3,1.1-2.2,1.3c-1.1,0.2-2.2,0.1-3.2-0.5
			c-1.3-0.7-2.1-1.8-2.3-3.3c-0.2-1.5,0.2-2.8,1.3-3.9c0.7-0.7,1.5-1.1,2.5-1.2c0.7-0.1,1.4,0,2.1,0.2
			C19.1,12.3,19.7,12.7,20.3,13.5C20.2,13.4,20.2,13.4,20.3,13.5z M17,12.9c-0.4,0-0.7,0-1.1,0.2c-1.3,0.5-2.1,1.5-2.2,2.9
			c-0.1,1,0.2,1.9,0.9,2.7c0.9,0.9,2,1.2,3.2,0.9c1.1-0.3,1.9-1,2.3-2.1c0.2-0.6,0.2-1.3,0.1-1.9c-0.1-0.6-0.4-1.2-0.8-1.6
			C18.8,13.2,18,12.9,17,12.9z"/>
		<path d="M38.3,13.3C38.4,13.3,38.4,13.3,38.3,13.3c0.6-0.9,1.4-1.3,2.4-1.5c0.7-0.1,1.4,0,2,0.3c0.6,0.3,1,0.8,1.3,1.4
			c0,0,0,0.1,0,0.1c0.1-0.2,0.2-0.4,0.4-0.6c0.6-0.7,1.3-1.1,2.2-1.2c0.6-0.1,1.1,0,1.6,0.2c1,0.3,1.6,0.9,1.8,1.9
			c0.1,0.4,0.2,0.8,0.2,1.2c0,1.9,0,3.7,0,5.6c0,0.1,0,0.1-0.1,0.1c-0.3,0-0.7,0-1,0c-0.1,0-0.1,0-0.1-0.1c0-1.7,0-3.5,0-5.2
			c0-0.4,0-0.9-0.2-1.3c-0.2-0.7-0.7-1.1-1.5-1.2c-0.5-0.1-0.9-0.1-1.4,0.1c-0.7,0.2-1.1,0.7-1.4,1.4c-0.2,0.5-0.3,1.1-0.3,1.6
			c0,1.5,0,3.1,0,4.6c0,0.1,0,0.1-0.1,0.1c-0.3,0-0.7,0-1,0c-0.1,0-0.1,0-0.1-0.1c0-1.7,0-3.4,0-5.2c0-0.5,0-0.9-0.2-1.4
			c-0.2-0.7-0.8-1.1-1.5-1.2c-0.5-0.1-1,0-1.5,0.2c-0.7,0.3-1.1,0.9-1.3,1.7c-0.1,0.5-0.2,0.9-0.2,1.4c0,1.5,0,3,0,4.5
			c0,0.1,0,0.1-0.1,0.1c-0.3,0-0.7,0-1,0c-0.1,0-0.2,0-0.2-0.1c0-1,0-2,0-3c0-1.1,0-2.2,0-3.3c0-0.8,0-1.5-0.1-2.3
			c0-0.1,0-0.1,0.1-0.1c0.4,0,0.7,0,1.1,0c0.1,0,0.1,0,0.1,0.1c0,0.4,0,0.7,0,1.1C38.3,13.2,38.3,13.3,38.3,13.3z"/>
		<path d="M56,7.2c1,0,1.8,0.1,2.5,0.6c0.5,0.3,0.9,0.6,1.2,1c0,0.1,0.1,0.1,0,0.1c-0.4,0.3-0.7,0.5-1.1,0.8c-0.1,0-0.1,0-0.1,0
			c-0.7-1-1.7-1.3-2.8-1.2c-0.6,0-1.2,0.2-1.6,0.6c-0.7,0.5-0.9,1.2-0.9,2c0.1,0.8,0.5,1.3,1.1,1.7c0.5,0.3,1.1,0.5,1.7,0.7
			c0.7,0.2,1.3,0.4,1.9,0.7c0.6,0.3,1.1,0.7,1.5,1.2c0.4,0.6,0.6,1.3,0.5,2.1c-0.1,1.4-0.7,2.3-1.9,3c-0.7,0.4-1.5,0.7-2.3,0.7
			c-1.1,0-2.2-0.2-3.1-0.8c-0.5-0.3-0.9-0.7-1.2-1.1c-0.1-0.1-0.1-0.1,0-0.2c0.4-0.2,0.7-0.5,1.1-0.8c0.1,0,0.1,0,0.1,0
			c0.5,0.8,1.3,1.3,2.3,1.5c0.8,0.1,1.6,0,2.3-0.4c0.6-0.3,1-0.8,1.2-1.5c0.2-0.9-0.1-1.8-1-2.4c-0.4-0.3-0.9-0.5-1.4-0.6
			c-0.7-0.2-1.4-0.4-2.1-0.7c-0.5-0.2-1-0.5-1.4-0.9c-0.4-0.5-0.7-1-0.8-1.6c-0.1-0.7-0.1-1.4,0.2-2c0.3-1,1-1.6,2-2
			C54.6,7.3,55.3,7.1,56,7.2z"/>
		<path d="M93.1,20.8c-0.6,0-1.2,0-1.8,0c0,0-0.1,0-0.1,0c-0.8-0.8-1.5-1.5-2.3-2.3c-0.6-0.6-1.2-1.3-1.9-1.9
			c-0.1-0.1-0.3-0.2-0.4-0.4c0,0.1,0,0.1,0,0.1c0,1.4,0,2.9,0,4.3c0,0.1,0,0.1-0.1,0.1c-0.3,0-0.7,0-1,0c-0.1,0-0.1,0-0.1-0.1
			c0-0.2,0-0.5,0-0.7c0-4.4,0-8.8,0-13.2c0-0.1,0-0.1,0.1-0.1c0.3,0,0.7,0,1,0c0.1,0,0.1,0,0.1,0.1c0,0.7,0,1.5,0,2.2
			c0,2.3,0,4.6,0,6.9c0,0,0,0.1,0,0.2c0.1,0,0.1-0.1,0.2-0.2c0.8-0.8,1.7-1.6,2.5-2.4c0.5-0.4,0.9-0.9,1.4-1.3c0,0,0.1,0,0.1,0
			c0.6,0,1.2,0,1.8,0c-0.1,0.1-0.3,0.3-0.4,0.4c-1.2,1.1-2.5,2.3-3.7,3.4c-0.1,0.1-0.2,0.1-0.2,0.2c0,0.1,0.1,0.2,0.2,0.2
			c0.5,0.5,1.1,1,1.6,1.6C91.1,18.8,92.1,19.8,93.1,20.8C93.1,20.7,93.2,20.8,93.1,20.8C93.2,20.8,93.2,20.8,93.1,20.8z"/>
		<path d="M76.9,19.4C76.9,19.4,76.9,19.4,76.9,19.4c-0.7,1.1-1.6,1.6-2.8,1.6c-0.7,0-1.4,0-2-0.4c-1-0.5-1.4-1.5-1.3-2.5
			c0.1-1.1,0.7-1.7,1.7-2.2c0.6-0.2,1.2-0.4,1.8-0.4c0.8-0.1,1.6-0.1,2.5-0.1c0.1,0,0.1,0,0.1-0.1c0-0.4,0-0.8-0.2-1.3
			c-0.3-0.6-0.7-1-1.4-1.1c-1.2-0.2-2.3,0.1-3.3,0.9c-0.1,0.1-0.1,0.1-0.2,0c-0.2-0.2-0.4-0.5-0.6-0.7c-0.1-0.1-0.1-0.1,0-0.2
			c0.5-0.4,1-0.7,1.6-0.9c0.9-0.3,1.8-0.4,2.7-0.2c1.4,0.2,2.4,1.1,2.5,2.5c0,0.2,0,0.4,0,0.6c0,1.3,0,2.6,0,4
			c0,0.6,0.1,1.2,0.1,1.8c0,0.1,0,0.1-0.1,0.1c-0.3,0-0.7,0-1,0c-0.1,0-0.1,0-0.1-0.1c-0.1-0.4-0.1-0.8-0.1-1.2
			C76.9,19.5,77,19.4,76.9,19.4z M76.9,17c0-0.2,0-0.3,0-0.4c0-0.1,0-0.1-0.1-0.1c-0.7,0-1.4,0-2.1,0.1c-0.5,0.1-1,0.2-1.5,0.4
			c-0.4,0.2-0.7,0.4-0.9,0.8c-0.3,0.8,0,1.6,0.8,2c0.5,0.2,1.1,0.3,1.6,0.2c0.8-0.1,1.4-0.5,1.8-1.2C76.8,18.1,76.9,17.5,76.9,17z"
			/>
		<path d="M34.3,19.4c-0.1,0-0.1,0.1-0.1,0.1c-0.6,1-1.5,1.5-2.7,1.5c-0.7,0-1.3,0-1.9-0.3c-1.1-0.5-1.6-1.5-1.4-2.6
			c0.1-1,0.7-1.7,1.6-2.1c0.6-0.3,1.2-0.4,1.9-0.5c0.8-0.1,1.6-0.1,2.4-0.1c0.1,0,0.1,0,0.1-0.1c0-0.4,0-0.7-0.1-1.1
			c-0.2-0.7-0.7-1.1-1.4-1.2c-1.2-0.2-2.3,0.1-3.3,0.9c-0.1,0.1-0.1,0.1-0.2,0c-0.2-0.2-0.4-0.5-0.6-0.7c-0.1-0.1-0.1-0.1,0-0.2
			c0.5-0.5,1.1-0.8,1.8-1c0.8-0.2,1.6-0.3,2.4-0.2c0.9,0.1,1.6,0.4,2.1,1.1c0.4,0.5,0.5,1,0.6,1.6c0,0.5,0,1,0,1.5
			c0,1.1,0,2.2,0,3.3c0,0.5,0.1,0.9,0.1,1.4c0,0.1,0,0.1-0.1,0.1c-0.3,0-0.7,0-1,0c-0.1,0-0.1,0-0.1-0.1c-0.1-0.4-0.1-0.8-0.1-1.2
			C34.3,19.5,34.3,19.4,34.3,19.4z M34.3,17c0-0.2,0-0.3,0-0.5c0-0.1,0-0.1-0.1-0.1c-0.6,0-1.3,0-1.9,0.1c-0.6,0.1-1.1,0.2-1.6,0.4
			c-0.4,0.2-0.7,0.4-0.9,0.8c-0.3,0.6-0.2,1.6,0.7,2c0.5,0.2,1.1,0.3,1.6,0.2c0.9-0.1,1.5-0.5,1.9-1.4C34.2,18,34.3,17.5,34.3,17z"
			/>
		<path d="M4.9,13.4c0.2-0.2,0.3-0.4,0.5-0.6c0.6-0.6,1.3-0.9,2.2-1c0.6-0.1,1.3,0,1.9,0.3c0.8,0.3,1.3,0.9,1.5,1.6
			c0.1,0.4,0.2,0.9,0.2,1.3c0,1.9,0,3.8,0,5.6c0,0.1,0,0.1-0.1,0.1c-0.3,0-0.6,0-1,0c-0.1,0-0.1,0-0.1-0.1c0-1.6,0-3.2,0-4.8
			c0-0.5,0-1-0.2-1.5c-0.3-0.8-0.8-1.2-1.7-1.3c-0.7-0.1-1.4,0.1-2,0.5c-0.6,0.4-0.9,1-1.1,1.7c-0.1,0.4-0.1,0.8-0.1,1.2
			c0,1.4,0,2.9,0,4.3c0,0.1,0,0.1-0.1,0.1c-0.3,0-0.6,0-1,0c-0.1,0-0.1,0-0.1-0.1c0-2.2,0-4.4,0-6.6c0-0.6,0-1.2-0.1-1.8
			c0-0.1,0-0.1,0-0.2c0-0.2,0-0.2,0.1-0.2c0.3,0,0.7,0,1,0c0.1,0,0.1,0,0.1,0.1C4.9,12.5,4.9,12.9,4.9,13.4
			C4.9,13.3,4.9,13.4,4.9,13.4z"/>
		<path d="M24.4,13.6c0.1-0.2,0.2-0.4,0.3-0.6c0.5-0.7,1.1-1.1,1.9-1.2c0.4-0.1,0.9-0.1,1.3,0c0.2,0,0.2,0,0.1,0.2
			c-0.1,0.3-0.1,0.7-0.2,1c0,0.1,0,0.1-0.1,0.1c-1.5-0.3-2.8,0.4-3.2,1.9c-0.1,0.3-0.1,0.5-0.1,0.8c0,1.6,0,3.2,0,4.8
			c0,0.1,0,0.1-0.1,0.1c-0.3,0-0.7,0-1,0c-0.1,0-0.1,0-0.1-0.1c0-1.9,0-3.9,0-5.8c0-0.6,0-1.2,0-1.8c0-0.3,0-0.6,0-0.9
			c0-0.1,0-0.1,0.1-0.1c0.3,0,0.7,0,1,0c0.1,0,0.1,0,0.1,0.1c0,0.5,0,0.9,0,1.4C24.3,13.6,24.3,13.6,24.4,13.6z"/>
		<path d="M81,13.6C81,13.6,81,13.6,81,13.6c0.5-1.1,1.3-1.7,2.5-1.8c0.4,0,0.8,0,1.2,0.1c0.1,0,0.1,0,0.1,0.1
			c-0.1,0.3-0.1,0.7-0.2,1c0,0,0,0.1-0.1,0.1c-1.4-0.3-2.8,0.4-3.2,1.9c-0.1,0.3-0.1,0.6-0.1,0.9c0,1.6,0,3.2,0,4.8
			c0,0.1,0,0.1-0.1,0.1c-0.3,0-0.7,0-1,0c-0.1,0-0.1,0-0.1-0.1c0-1.9,0-3.9,0-5.8c0-0.9,0-1.8-0.1-2.7c0-0.1,0-0.1,0.1-0.1
			c0.3,0,0.6,0,1,0c0.1,0,0.1,0,0.1,0.1c0,0.5,0,0.9,0,1.4C81,13.5,81,13.6,81,13.6z"/>
		<path d="M94.3,12c0,0.4-0.3,0.7-0.7,0.7c-0.4,0-0.7-0.3-0.7-0.7c0-0.4,0.3-0.7,0.7-0.7C94,11.3,94.3,11.6,94.3,12z M93.6,11.4
			c-0.3,0-0.5,0.2-0.5,0.6c0,0.3,0.2,0.6,0.5,0.6c0.3,0,0.5-0.2,0.5-0.6C94.1,11.7,93.9,11.4,93.6,11.4z"/>
		<path d="M93.7,12c0.1,0.1,0.1,0.2,0.2,0.3c0,0,0,0.1,0,0c-0.1,0-0.1,0-0.2,0c0,0,0-0.1,0-0.1c0-0.1-0.1-0.1-0.1-0.1
			c-0.1,0-0.1,0-0.1,0.1c0,0,0,0.1,0,0.1c0,0.1,0,0.1-0.1,0.1c-0.1,0-0.1,0-0.1-0.1c0-0.2,0-0.4,0-0.6c0-0.1,0-0.1,0.1-0.1
			c0.1,0,0.2,0,0.3,0c0.1,0,0.2,0,0.2,0.2C93.9,11.9,93.8,11.9,93.7,12z M93.4,11.8c0,0,0,0.1,0.1,0.1c0.1,0,0.2,0,0.2-0.1
			c0-0.1-0.1-0.1-0.1-0.1C93.5,11.7,93.4,11.8,93.4,11.8z"/>
	</g>
</g>
</svg>
