<?xml version="1.0" encoding="utf-8"?>
<!-- Generator: Adobe Illustrator 25.0.1, SVG Export Plug-In . SVG Version: 6.00 Build 0)  -->
<svg version="1.1" id="Layer_1" xmlns="http://www.w3.org/2000/svg" xmlns:xlink="http://www.w3.org/1999/xlink" x="0px" y="0px"
	 viewBox="0 0 59.3 30.8" style="enable-background:new 0 0 59.3 30.8;" xml:space="preserve">
<style type="text/css">
	.st0{fill:#EA963F;}
	.st1{fill:#282626;}
	.st2{fill:#DA4D34;}
	.st3{fill:#FBFBFC;}
	.st4{fill:#111111;}
	.st5{fill:#3D3D3D;}
	.st6{fill:#222222;}
	.st7{fill:#0C0C0C;}
	.st8{fill:#FFFFFF;}
</style>
<g>
	<g id="Jzt2Io_2_">
		<g>
			<path d="M52.8,22.2c-0.8,0.6-1.6,1-2.6,1.2C49.1,23.6,48,23.5,47,23c-0.9-0.5-1.5-1.4-1.6-2.4c-0.1-0.7,0-1.4,0.1-2
				c0.1-0.7,0.2-1.3,0.3-2c0.1-0.7,0.2-1.5,0.3-2.2c0.1-0.4,0.1-0.8,0.2-1.2c0-0.2,0.1-0.3,0.4-0.3c0.1,0,0.1,0,0.2,0
				c0.9,0,1.9,0,2.8,0c0.4,0,0.5,0.1,0.4,0.5c-0.2,1.1-0.3,2.1-0.5,3.2c-0.1,0.7-0.2,1.3-0.3,2c0,0.3,0,0.6,0.1,0.9
				c0.2,0.5,0.5,0.8,1.1,0.9c0.6,0.1,1.2,0,1.7-0.4c0.4-0.3,0.6-0.8,0.7-1.3c0.1-0.9,0.3-1.8,0.4-2.6c0.1-0.7,0.2-1.4,0.3-2.2
				c0-0.2,0.1-0.4,0.1-0.6c0-0.2,0.1-0.3,0.3-0.3c0,0,0.1,0,0.1,0c1,0,1.9,0,2.9,0c0.4,0,0.5,0.1,0.4,0.5c-0.2,1.1-0.3,2.3-0.5,3.4
				c-0.1,1-0.3,1.9-0.4,2.9c0,0.1,0,0.1,0,0.2c0,0.3,0.2,0.5,0.5,0.5c0.2,0,0.4,0,0.6,0c0.2,0,0.4,0.1,0.4,0.4
				c-0.1,0.6-0.2,1.2-0.2,1.7c0,0.2-0.1,0.4-0.1,0.6c0,0.1-0.1,0.2-0.2,0.3c-0.7,0.2-1.5,0.3-2.2,0.2c-0.3,0-0.7-0.1-1-0.2
				C53.6,23.1,53.1,22.8,52.8,22.2z"/>
			<path d="M32.9,22.2c-1,0.8-2.1,1.2-3.3,1.3c-0.9,0-1.9-0.1-2.7-0.6c-0.8-0.5-1.3-1.3-1.5-2.3c-0.1-0.7,0-1.3,0.1-2
				c0.1-0.6,0.2-1.2,0.3-1.8c0.1-0.7,0.2-1.3,0.3-2c0.1-0.5,0.2-1.1,0.2-1.6c0-0.2,0.1-0.3,0.4-0.4c1,0,2.1,0,3.1,0
				c0.3,0,0.4,0.2,0.4,0.4c-0.1,0.8-0.2,1.6-0.4,2.4c-0.1,0.9-0.3,1.7-0.4,2.6c0,0.3-0.1,0.7,0,1c0.1,0.6,0.5,0.9,1.1,1
				c0.6,0.1,1.2,0,1.7-0.4c0.5-0.4,0.7-0.9,0.8-1.4c0.1-0.7,0.2-1.5,0.3-2.2c0.1-0.7,0.2-1.4,0.3-2.2c0-0.3,0.1-0.6,0.1-1
				c0-0.2,0.1-0.2,0.3-0.3c0.1,0,0.1,0,0.2,0c1,0,1.9,0,2.9,0c0.4,0,0.5,0.1,0.4,0.5c-0.2,1.2-0.3,2.4-0.5,3.5
				c-0.1,0.9-0.3,1.8-0.4,2.8c0,0.1,0,0.1,0,0.2c0,0.3,0.2,0.5,0.5,0.5c0.2,0,0.4,0,0.6,0c0.2,0,0.4,0.1,0.4,0.4
				c-0.1,0.6-0.2,1.2-0.2,1.7c0,0.2-0.1,0.3-0.1,0.5c0,0.2-0.1,0.4-0.3,0.4c-1,0.2-2,0.3-3,0.1C33.7,23.2,33.4,22.9,32.9,22.2z"/>
			<path d="M38.9,21.1c0-0.5,0.1-0.9,0.2-1.4c0.1-0.6,0.2-1.2,0.3-1.8c0.1-0.7,0.2-1.4,0.3-2.1c0.1-0.7,0.2-1.3,0.3-2
				c0.1-0.7,0.2-1.4,0.3-2.2c0.1-0.6,0.2-1.3,0.3-1.9c0-0.2,0.1-0.3,0.3-0.4C42,9,43,8.7,44.1,8.4c0.3-0.1,0.5,0.1,0.4,0.3
				c0,0.4-0.1,0.8-0.2,1.2c-0.1,0.7-0.2,1.3-0.3,2c-0.1,0.7-0.2,1.3-0.3,2c-0.1,0.7-0.2,1.3-0.3,2c-0.1,0.7-0.2,1.3-0.3,2
				c-0.1,0.6-0.2,1.2-0.3,1.8c0,0.3,0.2,0.6,0.5,0.6c0.2,0,0.4,0,0.6,0c0.3,0,0.4,0.1,0.4,0.4c-0.1,0.7-0.2,1.5-0.3,2.2
				c0,0.3-0.2,0.4-0.5,0.5c-0.7,0.2-1.5,0.2-2.2,0.2c-0.6-0.1-1.2-0.2-1.8-0.6c-0.4-0.3-0.6-0.8-0.7-1.3
				C38.9,21.4,38.9,21.3,38.9,21.1z"/>
			<path d="M22.1,23.5c-0.6,0-1.3-0.1-1.9-0.4c-0.7-0.4-1.1-1-1.1-1.7c0-0.5,0.1-1,0.1-1.5c0.1-0.7,0.2-1.3,0.3-2
				c0.1-0.7,0.2-1.3,0.3-2c0.1-0.7,0.2-1.4,0.3-2.1c0.1-0.7,0.2-1.3,0.3-2c0.1-0.7,0.2-1.3,0.3-2c0-0.3,0.1-0.4,0.4-0.5
				c1-0.3,2.1-0.6,3.1-0.9c0.3-0.1,0.5,0.1,0.4,0.4c-0.1,0.8-0.2,1.6-0.4,2.4c-0.1,0.8-0.2,1.6-0.4,2.3c-0.1,0.8-0.2,1.6-0.3,2.3
				c-0.1,0.7-0.2,1.4-0.3,2.2c-0.1,0.5-0.2,1-0.2,1.5c-0.1,0.4,0.2,0.7,0.6,0.7c0.2,0,0.4,0,0.6,0c0.2,0,0.4,0.1,0.4,0.4
				c-0.1,0.7-0.2,1.3-0.3,2c0,0,0,0.1,0,0.1c0,0.3-0.2,0.5-0.5,0.5C23.2,23.4,22.7,23.5,22.1,23.5z"/>
			<path class="st4" d="M15.9,10.6c-0.2-1.3-0.8-2.5-1.8-3.4c-0.6-0.5-1.2-1-1.9-1.4C11.5,5.5,10.8,5.2,10,5C9.8,4.9,9.7,5,9.7,5.2
				c0,0.1,0,0.2,0,0.3C9.6,6,9.5,6.4,9.4,6.9c0,0.2,0,0.2-0.2,0.2C8.8,7,8.3,6.9,7.8,6.8c-0.4,0-0.7-0.1-1.1-0.1
				C6.6,6.7,6.5,6.8,6.5,7C6.4,7.7,6.3,8.4,6.2,9.1c0,0.1,0,0.1-0.1,0.2c0.1,0.1,0,0.2,0,0.2C6,10,6,10.5,5.9,11.1
				c-0.1,0.6-0.2,1.2-0.3,1.8c-0.1,0.4-0.1,0.8-0.2,1.3c-0.1,0.5-0.1,1.1-0.2,1.6c0.1,0,0.2-0.1,0.3-0.2c0.3-0.1,0.5-0.3,0.8-0.3
				c0.1,0,0.1-0.1,0.2-0.1c0.2-0.1,0.5-0.2,0.7-0.3c0.2-0.1,0.4-0.2,0.6-0.3c0.1-0.1,0.2-0.1,0.4-0.2c0.1,0,0.1,0,0.2,0.1
				c0.2,0.7,0.7,1.1,1.3,1.2c0.2,0,0.4,0.1,0.5,0.1c0.2,0,0.2,0.1,0.2,0.3c-0.2,0.4-0.4,0.8-0.5,1.2c-0.2,0.7-0.2,1.5,0.2,2.2
				c0.1,0.2,0.2,0.3,0.3,0.4c0.5,0.4,0.9,0.9,1.3,1.4c0,0,0,0,0,0c0.2-0.1,0.4-0.1,0.5-0.2c-0.2,0.1-0.3,0.2-0.5,0.2
				c0.2,0.2,0.3,0.4,0.5,0.6c0,0,0.1,0.1,0.1,0.1c0.3,0.4,0.6,0.7,0.8,1.1c0.2,0.3,0.3,0.6,0.5,0.9c0.1,0.3,0.2,0.5,0.3,0.8
				c0.1,0.3,0.2,0.5,0.2,0.8c0-0.2,0.1-0.4,0.1-0.7c0.1-0.5,0.1-0.9,0.2-1.4c0.1-0.5,0.1-1,0.2-1.4c0-0.2,0-0.4,0.1-0.6
				c0.1-0.3,0.1-0.6,0.2-1c0-0.1,0-0.1,0-0.2c0,0,0,0,0,0c0-0.1,0-0.1,0-0.2c0,0,0,0,0,0c0.1-0.4,0.1-0.8,0.2-1.2
				c0.2-0.9,0.3-1.9,0.4-2.8c0.1-0.7,0.2-1.4,0.3-2.2c0.1-0.6,0.2-1.2,0.2-1.9C16,11.6,16,11.1,15.9,10.6z"/>
			<path class="st5" d="M8.5,14.5l1-7.6c0,0,0.1,0.3-0.2,0.2c0,0-1.2-0.3-2.3-0.3c0,0-0.4-0.1-0.4,0.2l-0.6,4l-0.6,3.9l-0.8,4.7
				c0,0-0.3,0.7,0.7,0.6c0,0,6.9,1.4,7.5,5.9l0.9-0.3c0,0,0.9,0-0.7-2.8c0,0-1.3-2-2.6-3.2c0,0-1.5-1.3,0-3.8c0,0,0.2-0.3-0.7-0.4
				C9.8,15.7,8.5,15.5,8.5,14.5z"/>
			<path d="M13.9,24.8c-0.1-0.3-0.2-0.5-0.3-0.8c-0.1,0-0.3,0.1-0.4,0.1c-0.2,0.1-0.4,0.2-0.6,0.3c-0.1,0-0.1,0-0.1,0.2
				c-0.5-0.7-1.1-1.3-1.8-1.9c-0.3-0.2-0.6-0.5-1-0.7h0c-0.4-0.3-0.9-0.5-1.3-0.7c-0.4-0.2-0.8-0.3-1.2-0.5
				c-0.6-0.2-1.2-0.4-1.9-0.6c-0.2,0-0.4-0.1-0.5-0.1c-0.1,0-0.2-0.1-0.2-0.3c0-0.3,0.1-0.5,0.1-0.8c0.1-0.2,0.1-0.5,0.1-0.8
				c0-0.3,0.1-0.6,0.1-0.8c0.1-0.5,0.1-1,0.2-1.4c0-0.1,0-0.2,0.1-0.2c0.1-0.5,0.2-1.1,0.2-1.6c0.1-0.4,0.1-0.8,0.2-1.3
				c0.1-0.6,0.2-1.2,0.3-1.8C6,10.5,6.1,10,6.1,9.5c0-0.1,0.1-0.2,0-0.2c-0.1,0-0.1,0-0.2,0c-0.1,0-0.2,0-0.3,0
				c-0.7-0.1-1.4-0.1-2.1,0c-0.1,0-0.2,0.1-0.2,0.2C3.3,9.6,3.2,10,3.2,10.4c-0.1,0.5-0.2,1.1-0.2,1.6c-0.1,0.8-0.2,1.6-0.4,2.4
				c-0.1,0.4-0.1,0.7-0.1,1.1c0,0,0,0,0,0c0,0,0,0.1,0,0.1c-0.1,0.4-0.1,0.8-0.2,1.2c-0.1,0.8-0.3,1.7-0.4,2.5
				c-0.1,0.3-0.1,0.7-0.1,1c-0.1,0.6-0.2,1.3-0.3,1.9c0,0.2,0,0.3,0.2,0.3c0.1,0,0.3,0,0.4,0c0.7,0,1.4,0,2.1,0.1
				c0.6,0,1.2,0.1,1.8,0.2C6.4,22.8,7,22.9,7.6,23c0,0,0.1,0,0.1,0c0.9,0.2,1.7,0.5,2.5,0.9c0.9,0.5,1.7,1.1,2.3,2
				c0.1,0.2,0.3,0.2,0.4,0.2c0.3-0.1,0.6-0.2,0.9-0.3c0.2,0,0.3-0.1,0.3-0.3C14,25.3,14,25,13.9,24.8z"/>
			<path d="M14.8,20.3c0-0.1,0-0.1,0-0.2C14.9,20.2,14.9,20.2,14.8,20.3z"/>
			<path d="M14.8,20.5c0-0.1,0-0.1,0-0.2C14.8,20.4,14.9,20.4,14.8,20.5z"/>
			<path d="M2.4,15.4C2.4,15.4,2.4,15.5,2.4,15.4C2.4,15.5,2.4,15.4,2.4,15.4z"/>
			<path class="st6" d="M4.7,19c0.1-0.2,0.1-0.5,0.1-0.8c0-0.3,0.1-0.6,0.1-0.8c0.1-0.5,0.1-1,0.2-1.4c0-0.1,0-0.2,0.1-0.2
				c0.1,0,0.2-0.1,0.3-0.2c0.3-0.1,0.5-0.2,0.8-0.3c0.1,0,0.1-0.1,0.2-0.1c0.2-0.1,0.5-0.2,0.7-0.3c0.2-0.1,0.4-0.2,0.6-0.3
				c0.1-0.1,0.2-0.1,0.4-0.2c0.1,0,0.1,0,0.2,0.1c0.2,0.7,0.7,1.1,1.3,1.3c0.2,0,0.4,0.1,0.5,0.1c0.2,0,0.2,0.1,0.2,0.3
				c-0.2,0.4-0.4,0.8-0.5,1.2c-0.2,0.7-0.2,1.5,0.2,2.2c0,0,0,0-0.1,0c-0.5,0.1-0.9,0.4-1.4,0.6c-0.4,0.2-0.8,0.4-1.3,0.5
				c-0.1,0-0.2,0.1-0.3,0.1c-0.6-0.2-1.2-0.4-1.9-0.6c-0.2,0-0.4-0.1-0.5-0.1c-0.1,0-0.2-0.1-0.2-0.3C4.6,19.6,4.7,19.3,4.7,19z"/>
			<path class="st6" d="M7.2,20.7c0.1-0.1,0.2-0.1,0.3-0.1c0.4-0.1,0.8-0.4,1.3-0.5c0.5-0.2,0.9-0.4,1.4-0.6c0,0,0,0,0.1,0
				c0.1,0.2,0.2,0.3,0.3,0.4c0.5,0.4,0.9,0.9,1.3,1.4c0,0,0,0,0,0c0.1,0.2,0.3,0.4,0.4,0.6c0,0,0.1,0.1,0.1,0.1
				c-0.1,0-0.2,0.1-0.3,0.1c-0.5,0.2-0.9,0.4-1.3,0.6c-0.3-0.2-0.6-0.5-1-0.7c-0.4-0.3-0.9-0.5-1.3-0.7C8,21.1,7.6,20.9,7.2,20.7z"
				/>
			<path class="st6" d="M10.7,22.6c0.4-0.2,0.9-0.4,1.3-0.6c0.1,0,0.2-0.1,0.3-0.1c0.3,0.4,0.6,0.7,0.8,1.1c0.2,0.3,0.3,0.6,0.5,0.9
				c-0.1,0-0.3,0.1-0.4,0.1c-0.2,0.1-0.4,0.2-0.6,0.3c-0.1,0-0.1,0-0.1,0.2C12,23.8,11.3,23.2,10.7,22.6z"/>
		</g>
	</g>
	<path class="st7" d="M8.6,14.2l1-7.3c0,0,0,0.2-0.3,0.1c0,0-1.2-0.3-2.3-0.3c0,0-0.4-0.1-0.4,0.2l-0.6,4l-0.6,3.9l-0.8,4.7
		c0,0-0.3,0.7,0.7,0.6c0,0,6.9,1.4,7.5,5.9l0.9-0.3c0,0,1.1-0.2-0.6-2.8c0,0-1.3-2-2.6-3.1c0,0-1.4-1.2,0-3.7c0,0,0.3-0.4-0.7-0.4
		C9.8,15.7,8.5,15.2,8.6,14.2z"/>
</g>
</svg>
